<svg width="126" height="126" viewBox="0 0 126 126" fill="none" xmlns="http://www.w3.org/2000/svg">
<path d="M63.798 62.6699L63.2783 113.004" stroke="#FFCC00" stroke-width="4" stroke-linecap="round" stroke-linejoin="round"/>
<path d="M108.32 85.8429V39.4967C108.32 38.8031 108.136 38.1219 107.786 37.5229C107.437 36.9238 106.934 36.4283 106.33 36.087L65.2055 12.8424C64.6175 12.5101 63.9536 12.3354 63.2783 12.3354C62.6029 12.3354 61.939 12.5101 61.351 12.8424L20.226 36.087C19.6222 36.4283 19.1199 36.9238 18.7703 37.5229C18.4208 38.1219 18.2366 38.8031 18.2366 39.4967V85.8429C18.2366 86.5365 18.4208 87.2176 18.7703 87.8167C19.1199 88.4158 19.6222 88.9113 20.226 89.2526L61.351 112.497C61.939 112.829 62.6029 113.004 63.2783 113.004C63.9536 113.004 64.6175 112.829 65.2055 112.497L106.33 89.2526C106.934 88.9113 107.437 88.4158 107.786 87.8167C108.136 87.2176 108.32 86.5365 108.32 85.8429V85.8429Z" stroke="#FFCC00" stroke-width="4" stroke-linecap="round" stroke-linejoin="round"/>
<path d="M107.784 37.5186L63.798 62.6699L18.7764 37.5132" stroke="#FFCC00" stroke-width="4" stroke-linecap="round" stroke-linejoin="round"/>
<path d="M87.3337 72.7118V49.2118L41.9107 23.8308" stroke="#FFCC00" stroke-width="4" stroke-linecap="round" stroke-linejoin="round"/>
</svg>
