<svg width="33" height="33" viewBox="0 0 33 33" fill="none" xmlns="http://www.w3.org/2000/svg">
<path d="M12.0595 16.2717C13.0968 18.3924 14.8158 20.1036 16.9412 21.1312C17.0967 21.2049 17.2687 21.2368 17.4403 21.2238C17.6119 21.2108 17.7771 21.1534 17.9198 21.0572L21.0492 18.9704C21.1877 18.8781 21.3469 18.8218 21.5126 18.8066C21.6782 18.7913 21.8451 18.8177 21.998 18.8832L27.8526 21.3923C28.0515 21.4768 28.2175 21.6236 28.3257 21.8107C28.4339 21.9978 28.4783 22.2149 28.4524 22.4294C28.2673 23.8774 27.5608 25.2083 26.4652 26.1729C25.3695 27.1376 23.9598 27.6697 22.5 27.6698C17.9913 27.6698 13.6673 25.8787 10.4792 22.6906C7.29107 19.5025 5.5 15.1785 5.5 10.6698C5.50008 9.21002 6.03224 7.80032 6.99685 6.70465C7.96146 5.60898 9.29237 4.90247 10.7404 4.71743C10.9549 4.69147 11.172 4.73592 11.3591 4.8441C11.5461 4.95228 11.693 5.11832 11.7775 5.3172L14.2888 11.1769C14.3537 11.3285 14.3802 11.4938 14.3658 11.6581C14.3514 11.8223 14.2967 11.9805 14.2064 12.1185L12.1268 15.2959C12.0322 15.4389 11.9762 15.6039 11.9644 15.7749C11.9526 15.946 11.9854 16.1171 12.0595 16.2717V16.2717Z" stroke="#FF4100" stroke-width="2" stroke-linecap="round" stroke-linejoin="round"/>
</svg>
