<svg width="33" height="33" viewBox="0 0 33 33" fill="none" xmlns="http://www.w3.org/2000/svg">
<path d="M11.5 17.529L22.7396 27.4199C22.8697 27.5343 23.0272 27.613 23.1968 27.6482C23.3664 27.6835 23.5423 27.6741 23.7072 27.6209C23.872 27.5677 24.0203 27.4727 24.1373 27.345C24.2544 27.2173 24.3363 27.0614 24.375 26.8925L29.0767 6.37596C29.1174 6.19857 29.1088 6.01346 29.0521 5.84056C28.9953 5.66766 28.8924 5.51354 28.7545 5.39479C28.6166 5.27605 28.4489 5.19719 28.2695 5.16671C28.09 5.13623 27.9057 5.15529 27.7363 5.22184L4.66673 14.2849C4.46567 14.3639 4.29559 14.5058 4.18195 14.6896C4.06831 14.8733 4.01721 15.0888 4.03629 15.304C4.05538 15.5192 4.14362 15.7224 4.28783 15.8832C4.43203 16.044 4.62444 16.1539 4.83626 16.1962L11.5 17.529Z" stroke="#007CFF" stroke-width="2" stroke-linecap="round" stroke-linejoin="round"/>
<path d="M11.5 17.5289L28.514 5.24097" stroke="#007CFF" stroke-width="2" stroke-linecap="round" stroke-linejoin="round"/>
<path d="M17.1134 22.4688L13.2071 26.3751C13.0673 26.515 12.8891 26.6102 12.6951 26.6488C12.5011 26.6874 12.3 26.6676 12.1173 26.5919C11.9346 26.5162 11.7784 26.388 11.6685 26.2236C11.5587 26.0591 11.5 25.8658 11.5 25.668V17.5291" stroke="#007CFF" stroke-width="2" stroke-linecap="round" stroke-linejoin="round"/>
</svg>
