<svg width="33" height="33" viewBox="0 0 33 33" fill="none" xmlns="http://www.w3.org/2000/svg">
<path d="M6.1786 22.7947C4.68768 20.2813 4.16554 17.3102 4.71024 14.4391C5.25494 11.5681 6.829 8.99459 9.13685 7.20196C11.4447 5.40933 14.3276 4.52085 17.2441 4.70336C20.1607 4.88587 22.9103 6.12682 24.9767 8.19317C27.0431 10.2595 28.284 13.0091 28.4666 15.9257C28.6491 18.8423 27.7606 21.7252 25.968 24.033C24.1754 26.3409 21.6019 27.9149 18.7309 28.4597C15.8598 29.0044 12.8887 28.4823 10.3753 26.9914L10.3753 26.9912L6.23078 28.1754C6.0593 28.2244 5.87785 28.2266 5.70521 28.1819C5.53258 28.1372 5.37504 28.0471 5.24894 27.921C5.12284 27.7949 5.03275 27.6373 4.98802 27.4647C4.94329 27.2921 4.94553 27.1106 4.99453 26.9391L6.17869 22.7946L6.1786 22.7947Z" stroke="#26CD58" stroke-width="2" stroke-linecap="round" stroke-linejoin="round"/>
<path d="M19.5142 23.6699C18.1986 23.6718 16.8956 23.414 15.6797 22.9114C14.4639 22.4088 13.3592 21.6713 12.4289 20.741C11.4987 19.8107 10.7611 18.706 10.2585 17.4902C9.75589 16.2744 9.49814 14.9713 9.50001 13.6557C9.50299 12.7297 9.87314 11.8426 10.5293 11.1892C11.1854 10.5357 12.074 10.1691 13 10.1699V10.1699C13.1519 10.1699 13.3011 10.2101 13.4325 10.2863C13.5638 10.3626 13.6727 10.4722 13.7481 10.604L15.2094 13.1615C15.2976 13.3157 15.343 13.4906 15.3411 13.6682C15.3393 13.8459 15.2901 14.0198 15.1987 14.1721L14.0251 16.1281C14.6289 17.4681 15.7018 18.5411 17.0418 19.1449V19.1449L18.9978 17.9712C19.1502 17.8798 19.3241 17.8307 19.5017 17.8288C19.6793 17.8269 19.8542 17.8724 20.0085 17.9605L22.5659 19.4219C22.6978 19.4972 22.8074 19.6061 22.8836 19.7375C22.9598 19.8688 23 20.018 23 20.1699V20.1699C22.9974 21.0949 22.6297 21.9815 21.977 22.6369C21.3242 23.2922 20.4392 23.6635 19.5142 23.6699V23.6699Z" stroke="#26CD58" stroke-width="2" stroke-linecap="round" stroke-linejoin="round"/>
</svg>
